<svg xmlns="http://www.w3.org/2000/svg" viewBox="0 0 1200 360" role="img" aria-labelledby="title desc">
  <title id="title">NiubiGEO open-source AI brand visibility reports</title>
  <desc id="desc">README artwork for NiubiGEO with a geo pin, star, and clear product wordmark.</desc>
  <defs>
    <linearGradient id="bg" x1="0" x2="1" y1="0" y2="1">
      <stop offset="0" stop-color="#07110F"/>
      <stop offset="0.54" stop-color="#0E1A22"/>
      <stop offset="1" stop-color="#101827"/>
    </linearGradient>
    <filter id="softShadow" x="-20%" y="-20%" width="140%" height="150%">
      <feDropShadow dx="0" dy="18" stdDeviation="22" flood-color="#000000" flood-opacity="0.26"/>
    </filter>
  </defs>
  <rect width="1200" height="360" rx="34" fill="url(#bg)"/>
  <path d="M0 286 C158 230 302 238 432 272 C582 312 718 314 850 278 C984 241 1095 230 1200 262 L1200 360 L0 360 Z" fill="#0B3E46" opacity="0.42"/>
  <path d="M0 308 C146 266 292 264 438 302 C586 340 722 340 852 310 C996 276 1110 270 1200 296 L1200 360 L0 360 Z" fill="#1597A5" opacity="0.16"/>
  <g filter="url(#softShadow)">
    <rect x="78" y="68" width="168" height="168" rx="40" fill="#111827" stroke="#243244" stroke-width="3"/>
    <path fill="#FFE0C2" stroke="#FFFFFF" stroke-width="5" stroke-linejoin="round" d="M162 94c-29.96 0-54.25 22.92-54.25 51.2C107.75 182.32 162 216.5 162 216.5s54.25-34.18 54.25-71.3C216.25 116.92 191.96 94 162 94Z"/>
    <path fill="none" stroke="#2DD4BF" stroke-width="6" stroke-linecap="round" d="M123 147.2c11.4-9.3 24.4-14 39-14s27.6 4.7 39 14"/>
    <path fill="none" stroke="#2DD4BF" stroke-width="6" stroke-linecap="round" d="M132.5 172.4c8.3 6.4 18.1 9.6 29.5 9.6s21.2-3.2 29.5-9.6"/>
    <path fill="#FACC15" stroke="#111827" stroke-width="5" stroke-linejoin="round" d="M162 118.8 171.15 142.85 195.2 152 171.15 161.15 162 185.2 152.85 161.15 128.8 152 152.85 142.85 162 118.8Z"/>
    <circle cx="187.5" cy="126.5" r="5.5" fill="#FFFFFF"/>
    <circle cx="141.5" cy="180.5" r="4.7" fill="#FFFFFF"/>
  </g>
  <g>
    <text x="292" y="144" fill="#FFFFFF" font-family="Inter, ui-sans-serif, system-ui, -apple-system, BlinkMacSystemFont, 'Segoe UI', sans-serif" font-size="74" font-weight="850" letter-spacing="0">niubi</text>
    <text x="462" y="144" fill="#2DD4BF" font-family="Inter, ui-sans-serif, system-ui, -apple-system, BlinkMacSystemFont, 'Segoe UI', sans-serif" font-size="74" font-weight="850" letter-spacing="0">geo</text>
    <text x="297" y="188" fill="#D6F7F2" font-family="Inter, ui-sans-serif, system-ui, -apple-system, BlinkMacSystemFont, 'Segoe UI', sans-serif" font-size="23" font-weight="700" letter-spacing="0">
      Open-source AI brand visibility reports
    </text>
    <text x="297" y="229" fill="#AAB8C5" font-family="Inter, ui-sans-serif, system-ui, -apple-system, BlinkMacSystemFont, 'Segoe UI', sans-serif" font-size="19" font-weight="500" letter-spacing="0">
      See who AI recommends, cites, and leaves out.
    </text>
  </g>
  <g font-family="Inter, ui-sans-serif, system-ui, -apple-system, BlinkMacSystemFont, 'Segoe UI', sans-serif" font-size="15" font-weight="750" letter-spacing="0">
    <rect x="298" y="260" width="118" height="34" rx="17" fill="#B5FF3D"/>
    <text x="325" y="282" fill="#07110F">BYOK</text>
    <rect x="430" y="260" width="154" height="34" rx="17" fill="#51FFB7"/>
    <text x="456" y="282" fill="#07110F">Self-hosted</text>
    <rect x="598" y="260" width="190" height="34" rx="17" fill="#31D7FF"/>
    <text x="625" y="282" fill="#07110F">Real API results</text>
  </g>
  <g opacity="0.5" stroke="#31D7FF" stroke-width="2" fill="none">
    <path d="M900 100h190c18 0 32 14 32 32v72c0 18-14 32-32 32H900c-18 0-32-14-32-32v-72c0-18 14-32 32-32Z"/>
    <path d="M900 139h190"/>
    <path d="M902 173h82"/>
    <path d="M1008 173h80"/>
    <path d="M902 207h186"/>
  </g>
  <g fill="#FACC15" opacity="0.95">
    <path d="M1032 76 1038.7 93.3 1056 100 1038.7 106.7 1032 124 1025.3 106.7 1008 100 1025.3 93.3 1032 76Z"/>
    <circle cx="1102" cy="82" r="5"/>
    <circle cx="858" cy="246" r="4"/>
  </g>
</svg>
